<svg xmlns="http://www.w3.org/2000/svg" viewBox="0 0 180 180" role="img" aria-label="Cross-Country maps touch icon">
  <rect width="180" height="180" rx="42" fill="#eff7ef" />
  <path d="M28 119c12-6 22-20 34-37 9-12 19-26 34-39 12 8 21 18 34 32 8 9 15 17 25 24" fill="none" stroke="#1a8d61" stroke-linecap="round" stroke-linejoin="round" stroke-width="10"/>
  <path d="M43 134c10-9 17-21 25-33 6-9 13-18 22-25 8 6 14 13 20 20 6 7 12 13 19 18 10-13 18-26 27-41" fill="none" stroke="#2d7ff9" stroke-linecap="round" stroke-linejoin="round" stroke-width="8" opacity=".92"/>
  <circle cx="44" cy="132" r="8" fill="#2d7ff9" />
  <circle cx="100" cy="54" r="7" fill="#20bf55" />
  <circle cx="145" cy="93" r="7" fill="#7e57c2" />
</svg>