<svg xmlns="http://www.w3.org/2000/svg" viewBox="0 0 64 64" role="img" aria-label="Cross-Country maps favicon">
  <rect width="64" height="64" rx="16" fill="#eef7ef" />
  <path d="M10 42c5-2 9-8 14-14 3-5 7-10 13-15 5 4 8 7 13 13 3 4 6 6 10 9" fill="none" stroke="#1a8d61" stroke-linecap="round" stroke-linejoin="round" stroke-width="4.5"/>
  <path d="M15 48c4-4 7-8 10-13 3-4 6-7 10-10 3 3 6 5 9 9 3 3 5 6 8 8 4-5 7-11 12-18" fill="none" stroke="#2d7ff9" stroke-linecap="round" stroke-linejoin="round" stroke-width="3.5"/>
  <circle cx="16" cy="48" r="3.5" fill="#2d7ff9" />
</svg>