<svg xmlns="http://www.w3.org/2000/svg" viewBox="0 0 512 512" role="img" aria-label="Cross-Country maps maskable icon">
  <rect width="512" height="512" fill="#e4f0e5" />
  <circle cx="256" cy="256" r="208" fill="#f8fbf7" />
  <path d="M122 338c29-12 55-47 86-88 18-24 39-52 68-79 24 15 41 33 66 60 16 18 29 31 50 44" fill="none" stroke="#1a8d61" stroke-linecap="round" stroke-linejoin="round" stroke-width="26"/>
  <path d="M149 381c22-21 39-47 58-74 14-20 28-39 47-56 17 14 30 28 44 44 13 15 25 28 41 39 24-28 42-57 63-92" fill="none" stroke="#2d7ff9" stroke-linecap="round" stroke-linejoin="round" stroke-width="22" opacity=".9"/>
  <circle cx="143" cy="375" r="20" fill="#2d7ff9" />
  <circle cx="276" cy="171" r="16" fill="#20bf55" />
  <circle cx="388" cy="275" r="16" fill="#7e57c2" />
</svg>